<svg width="63" height="16" viewBox="0 0 63 16" fill="none" xmlns="http://www.w3.org/2000/svg">
<path d="M62.5689 5.20977C62.6029 5.24415 62.6297 5.2848 62.6476 5.32938C62.6656 5.37396 62.6744 5.42159 62.6737 5.46955V6.02016C62.6744 6.06812 62.6656 6.11575 62.6476 6.16033C62.6297 6.20491 62.6029 6.24556 62.5689 6.27994C62.5345 6.31359 62.4934 6.34006 62.4483 6.35777C62.4032 6.37548 62.355 6.38406 62.3064 6.383H61.9722C61.592 6.37956 61.2158 6.45877 60.8704 6.61496C60.525 6.77115 60.2188 7.00049 59.9739 7.28658C59.419 7.94399 59.1146 8.77135 59.1131 9.62599V14.7086C59.1122 14.8225 59.0658 14.9315 58.984 15.0122C58.9014 15.0948 58.7891 15.1425 58.6713 15.1449H58.2653C58.2057 15.148 58.146 15.139 58.0901 15.1182C58.0342 15.0974 57.9834 15.0654 57.9407 15.0243C57.8981 14.9831 57.8646 14.9337 57.8425 14.8791C57.8203 14.8245 57.8099 14.7659 57.812 14.7072V5.89451C57.8115 5.78083 57.8551 5.67124 57.9339 5.58814C57.9718 5.54766 58.0177 5.51525 58.0687 5.49291C58.1198 5.47057 58.175 5.45878 58.2309 5.45825C58.3212 5.45628 58.4096 5.48412 58.4819 5.53731C58.5548 5.59396 58.6111 5.66846 58.6455 5.75333L58.9324 6.55101C59.2849 6.15912 59.699 5.82544 60.1589 5.56273C60.7131 5.25885 61.3378 5.10172 61.9722 5.1067H62.3036C62.3521 5.10565 62.4004 5.11423 62.4455 5.13194C62.4906 5.14965 62.5316 5.17612 62.5661 5.20977H62.5689ZM47.6411 7.12139C46.9713 7.62074 46.4691 8.30631 46.1994 9.0895H53.6791C53.4129 8.30641 52.913 7.62052 52.2446 7.12139C51.5754 6.64147 50.7687 6.3829 49.9407 6.3829C49.1127 6.3829 48.306 6.64147 47.6368 7.12139H47.6411ZM53.8025 12.252L54.1884 12.5541C54.2337 12.5892 54.2702 12.6341 54.295 12.6852C54.3199 12.7364 54.3325 12.7925 54.3318 12.8492C54.3233 12.9581 54.2868 13.0631 54.2257 13.1542C53.74 13.8377 53.0952 14.3968 52.345 14.7848C51.364 15.2945 50.2424 15.4797 49.1462 15.3132C48.05 15.1466 47.0373 14.6371 46.2582 13.8601C45.322 12.9316 44.7817 11.686 44.7479 10.3783C44.7141 9.07065 45.1895 7.7997 46.0766 6.82559C46.9637 5.85148 48.1956 5.24788 49.5201 5.13831C50.8445 5.02874 52.1615 5.42149 53.2014 6.23617C54.1292 6.96006 54.7768 7.97513 55.0362 9.11208C55.062 9.23633 55.0806 9.35633 55.0979 9.47775C55.1151 9.59917 55.1265 9.71353 55.138 9.83918V9.88718C55.1429 9.96027 55.1292 10.0334 55.0981 10.1C55.0671 10.1665 55.0197 10.2244 54.9601 10.2684C54.8858 10.3202 54.7985 10.351 54.7077 10.3573C51.8759 10.4463 48.8777 10.3573 46.0273 10.3573C46.065 11.351 46.4898 12.2924 47.2136 12.9862C47.7988 13.5575 48.554 13.9303 49.3693 14.0501C50.1846 14.17 51.0175 14.0307 51.7468 13.6526C52.3175 13.352 52.8088 12.9241 53.1813 12.4031C53.2495 12.3038 53.3465 12.2271 53.4596 12.1828C53.5179 12.1636 53.5803 12.1599 53.6405 12.172C53.7007 12.1842 53.7566 12.2118 53.8025 12.252ZM39.7741 14.7072V6.73032H38.7427C38.6841 6.73088 38.626 6.71995 38.5718 6.69815C38.5176 6.67636 38.4683 6.64414 38.4269 6.60339C38.3855 6.56263 38.3528 6.51416 38.3306 6.4608C38.3085 6.40745 38.2974 6.35028 38.298 6.29265C38.2972 6.20308 38.3253 6.1156 38.3783 6.04275C38.4345 5.96976 38.5113 5.91475 38.5992 5.88463L39.7741 5.49072V1.38651C39.7736 1.27283 39.8172 1.16325 39.896 1.08015C39.9339 1.03974 39.9798 1.00737 40.0309 0.985034C40.0819 0.962699 40.1371 0.950864 40.193 0.950256H40.6506C40.7065 0.950781 40.7617 0.962577 40.8128 0.984918C40.8638 1.00726 40.9097 1.03967 40.9476 1.08015C41.0264 1.16325 41.07 1.27283 41.0695 1.38651V5.45825H43.425C43.5429 5.45743 43.6564 5.50261 43.7406 5.5839C43.782 5.62468 43.8147 5.67313 43.8368 5.72646C43.859 5.77978 43.8702 5.8369 43.8697 5.89451V6.29547C43.8673 6.41175 43.8184 6.52239 43.7334 6.60325C43.6935 6.64412 43.6456 6.67668 43.5926 6.69899C43.5396 6.7213 43.4826 6.73291 43.425 6.73314H41.0695V14.7072C41.0701 14.8213 41.0265 14.9314 40.9476 15.015C40.9097 15.0555 40.8638 15.0879 40.8128 15.1102C40.7617 15.1325 40.7065 15.1443 40.6506 15.1449H40.193C40.1371 15.1443 40.0819 15.1324 40.0309 15.1101C39.9798 15.0877 39.9339 15.0554 39.896 15.015C39.8171 14.9314 39.7735 14.8213 39.7741 14.7072ZM36.2537 6.30677C36.2731 6.39675 36.2556 6.49063 36.205 6.56796C36.1031 6.72467 35.9812 6.89691 35.8707 7.04798C35.8423 7.08775 35.8048 7.12036 35.7611 7.14318C35.7175 7.16599 35.6691 7.17836 35.6197 7.17928C35.5026 7.17888 35.3882 7.14557 35.2897 7.08328C35.0441 6.92478 34.7808 6.79451 34.505 6.69502C34.1759 6.57643 33.8284 6.51481 33.4779 6.51289C32.6172 6.51289 32.1653 6.75714 31.9329 7.05645C31.7539 7.31211 31.6661 7.61896 31.6833 7.92897C31.6833 8.91725 32.6875 9.2928 33.4047 9.56811C33.5252 9.61329 33.6386 9.65564 33.7404 9.69941C34.4304 9.96342 35.152 10.2641 35.7029 10.7131C35.9987 10.9358 36.2375 11.2235 36.4002 11.5532C36.5628 11.8829 36.6448 12.2455 36.6396 12.612C36.6396 13.5057 36.3298 14.2131 35.799 14.7001C35.2453 15.2084 34.4548 15.4795 33.5224 15.4795C32.9297 15.4663 32.3463 15.3317 31.8095 15.0842C31.1743 14.7997 30.5858 14.4232 30.0637 13.9674C30.0379 13.9448 30.0106 13.9152 29.9848 13.8912C29.9486 13.8572 29.9197 13.8165 29.8997 13.7714C29.8798 13.7263 29.8692 13.6777 29.8686 13.6286C29.8703 13.5285 29.912 13.4331 29.9848 13.3631L30.3406 13.013C30.4165 12.9365 30.519 12.8911 30.6275 12.8859C30.6785 12.883 30.7296 12.8905 30.7775 12.908C30.8254 12.9255 30.8691 12.9526 30.9058 12.9876L30.956 13.037C31.3458 13.3896 31.7867 13.6832 32.2643 13.9081C32.6558 14.1029 33.0854 14.2122 33.5238 14.2286C34.012 14.2473 34.4904 14.0902 34.8694 13.7867C35.03 13.6362 35.1556 13.4533 35.2375 13.2505C35.3195 13.0478 35.3559 12.8299 35.3442 12.612C35.3442 11.635 34.1837 11.2002 33.4793 10.9489C33.3732 10.9108 33.2771 10.8755 33.1924 10.843L33.125 10.8162C31.4939 10.1752 30.3692 9.73329 30.3692 7.92897C30.3692 7.08186 30.6562 6.40983 31.1884 5.95239C31.7206 5.49496 32.4938 5.24648 33.4607 5.24648C33.9706 5.24773 34.4761 5.34005 34.9526 5.51896C35.3217 5.65819 35.6732 5.83918 35.9998 6.05828L36.0773 6.1077C36.16 6.14919 36.2232 6.22051 36.2537 6.30677ZM24.2509 13.013C24.9966 12.2795 25.4173 11.2856 25.4213 10.248C25.4254 9.21048 25.0124 8.21344 24.2725 7.47435C23.9115 7.11912 23.4817 6.83895 23.0085 6.6505C22.5354 6.46205 22.0285 6.36916 21.5181 6.37736C21.0051 6.37223 20.4962 6.46799 20.0212 6.65904C19.5463 6.85008 19.1149 7.13255 18.7523 7.48988C18.0145 8.22359 17.6019 9.21494 17.6047 10.2472C17.6047 10.7504 17.7061 11.2486 17.9031 11.7129C18.1001 12.1773 18.3887 12.5985 18.7523 12.9523C19.4838 13.6795 20.4784 14.0918 21.5181 14.0987C22.0243 14.107 22.527 14.0152 22.9965 13.8287C23.4659 13.6422 23.8925 13.3648 24.2509 13.013ZM23.6857 5.58249C24.3652 5.89737 24.9723 6.34507 25.4703 6.89833L25.8562 5.75756C25.8869 5.67074 25.9433 5.595 26.0183 5.54014C26.0922 5.48623 26.1817 5.45704 26.2736 5.45684C26.3916 5.45602 26.505 5.5012 26.5892 5.58249C26.6304 5.62334 26.6629 5.67184 26.6848 5.72516C26.7067 5.77849 26.7176 5.83558 26.7169 5.8931V14.7072C26.7189 14.7651 26.7088 14.8227 26.6873 14.8766C26.6657 14.9305 26.6331 14.9795 26.5916 15.0205C26.5501 15.0615 26.5004 15.0937 26.4457 15.1151C26.391 15.1365 26.3325 15.1466 26.2736 15.1449H25.8662C25.8076 15.1456 25.7494 15.1348 25.6951 15.1131C25.6408 15.0914 25.5915 15.0592 25.5501 15.0184C25.5086 14.9776 25.4759 14.929 25.4538 14.8756C25.4317 14.8221 25.4207 14.7649 25.4215 14.7072V13.6102C24.959 14.1481 24.3821 14.5794 23.7316 14.8738C23.0252 15.2001 22.2534 15.366 21.4731 15.3593C20.6929 15.3526 19.9241 15.1734 19.2236 14.835C18.5231 14.4967 17.9088 14.0077 17.4261 13.4044C16.9434 12.801 16.6046 12.0986 16.4347 11.3491C16.2649 10.5995 16.2683 9.82199 16.4447 9.07393C16.6212 8.32586 16.9661 7.62636 17.4541 7.02712C17.9421 6.42787 18.5607 5.94418 19.2641 5.61178C19.9675 5.27939 20.7378 5.10678 21.5181 5.1067C22.2676 5.10645 23.0078 5.26941 23.6857 5.5839V5.58249ZM50.0813 10.3263H53.2373C52.2044 10.3432 51.1443 10.3376 50.0856 10.3305L50.0813 10.3263ZM12.4963 6.18111C13.1275 6.8362 13.5177 7.7779 13.5306 8.9709V14.7072C13.5314 14.7649 13.5204 14.8221 13.4983 14.8756C13.4763 14.929 13.4435 14.9776 13.4021 15.0184C13.3606 15.0592 13.3113 15.0914 13.257 15.1131C13.2027 15.1348 13.1445 15.1456 13.0859 15.1449H12.6842C12.6256 15.1456 12.5674 15.1348 12.5131 15.1131C12.4588 15.0914 12.4095 15.0592 12.3681 15.0184C12.3266 14.9776 12.2939 14.929 12.2718 14.8756C12.2497 14.8221 12.2388 14.7649 12.2395 14.7072V8.97514C12.2452 8.59079 12.1821 8.20846 12.053 7.84567C11.9415 7.53251 11.7573 7.24924 11.5151 7.01833C11.3002 6.80918 11.0424 6.64747 10.7591 6.54395C10.4554 6.43225 10.1336 6.3758 9.80942 6.37736C9.15096 6.37736 8.55419 6.73596 8.11953 7.30635C7.64416 7.95847 7.39286 8.74298 7.40226 9.54552V14.7072C7.40302 14.8228 7.3571 14.9341 7.27458 15.0164C7.1904 15.0977 7.07693 15.1429 6.95898 15.142H6.55158C6.49296 15.1428 6.43479 15.132 6.38049 15.1103C6.32618 15.0885 6.27685 15.0563 6.2354 15.0155C6.19395 14.9747 6.16122 14.9262 6.13915 14.8728C6.11707 14.8193 6.1061 14.7621 6.10687 14.7044V8.97514C6.11258 8.59079 6.04946 8.20846 5.92038 7.84567C5.80879 7.53251 5.62461 7.24924 5.38243 7.01833C5.16916 6.80816 4.91293 6.64501 4.63073 6.53972C4.32541 6.42895 4.00213 6.37393 3.67676 6.37736C3.05417 6.37736 2.49756 6.69361 2.07581 7.19622C1.60388 7.78472 1.32339 8.49969 1.27103 9.24762V14.7072C1.27195 14.8225 1.22778 14.9337 1.14766 15.0178C1.10976 15.0582 1.06387 15.0906 1.01281 15.1129C0.961748 15.1352 0.906587 15.1471 0.850712 15.1477H0.42035C0.364474 15.1471 0.309314 15.1352 0.258251 15.1129C0.207189 15.0906 0.1613 15.0582 0.1234 15.0178C0.0432811 14.9337 -0.000892924 14.8225 2.94168e-05 14.7072V5.89451C-0.000471315 5.78083 0.043143 5.67124 0.121965 5.58814C0.159866 5.54773 0.205754 5.51536 0.256817 5.49303C0.30788 5.47069 0.36304 5.45886 0.418915 5.45825C0.509219 5.45628 0.597593 5.48412 0.66996 5.53731C0.742772 5.59396 0.79917 5.66846 0.833497 5.75333L1.06876 6.42395C1.36526 6.07435 1.71574 5.77277 2.10737 5.53026C2.5801 5.24772 3.12372 5.10101 3.67676 5.1067C4.34747 5.0996 5.00849 5.26456 5.59474 5.58532C6.13755 5.88844 6.58444 6.33363 6.88582 6.8715C7.19743 6.35571 7.62914 5.92019 8.14535 5.60085C8.64165 5.28511 9.2185 5.11381 9.80942 5.1067C10.8724 5.1067 11.8249 5.47943 12.502 6.18252L12.4963 6.18111Z" fill="white"/>
</svg>
