<svg width="103" height="37" viewBox="0 0 103 37" fill="none" xmlns="http://www.w3.org/2000/svg">
<path d="M82.0314 11.3569C82.3039 11.5503 82.367 11.7677 82.3183 11.9852C82.2495 12.2126 82.1282 12.4214 81.9639 12.5951L79.7605 15.1985C80.736 15.2084 81.5135 15.3058 82.1734 15.5261C82.8373 15.746 83.4357 16.1243 83.9149 16.6273C84.6523 17.3784 85.2978 18.4359 85.9649 19.5286C86.3952 20.2345 86.8371 20.9588 87.3191 21.6252C87.7026 22.1697 88.142 22.674 88.6302 23.1302C89.0893 23.5626 89.6271 23.9061 90.2154 24.1425C90.4451 24.2476 90.6855 24.328 90.9327 24.3825C91.1789 24.4369 91.4305 24.4644 91.6829 24.4644C93.0056 24.4644 93.9782 23.9872 94.6324 23.222C95.3841 22.348 95.7298 21.0957 95.7298 19.7503C95.7446 18.536 95.3246 17.3554 94.5434 16.4155C93.8104 15.5684 92.8004 15.0376 91.6829 15.0376C91.1068 15.0387 90.5397 15.1793 90.0318 15.447C89.4943 15.733 89.0271 16.1315 88.6632 16.6146C88.5281 16.811 88.362 16.985 88.1712 17.1299C88.0716 17.2039 87.9502 17.2439 87.8255 17.2439C87.7007 17.2439 87.5793 17.2039 87.4797 17.1299C87.4089 17.0868 87.3496 17.0276 87.3067 16.9574C87.2638 16.8872 87.2385 16.8079 87.233 16.7261C87.23 16.5626 87.2674 16.4007 87.342 16.2546C87.4746 15.995 87.6469 15.7569 87.8527 15.5486C88.0278 15.3655 88.2132 15.192 88.4079 15.0291C88.7308 14.7529 89.0862 14.5159 89.4666 14.3232C89.8904 14.1176 90.3414 13.9712 90.8064 13.8883C93.2452 13.4168 95.0814 14.5759 96.13 16.3308C96.5492 17.048 96.8404 17.8307 96.9907 18.6448C97.149 19.4668 97.1665 20.309 97.0424 21.1367C96.7139 23.2728 95.3769 25.1647 92.832 25.6546C88.5427 26.4706 86.3005 22.7165 84.7814 20.1724L84.6379 19.9338C84.2202 19.1978 83.7311 18.5032 83.1775 17.8598C82.5765 17.1991 81.8606 16.6654 81.0257 16.5595C80.1169 16.4299 79.1909 16.6215 78.412 17.1003C77.6205 17.5959 77.0252 18.3432 76.725 19.218C76.5198 19.814 76.4649 20.45 76.5648 21.0715C76.6648 21.693 76.9167 22.2813 77.2988 22.7857C77.7694 23.4186 78.4176 23.9024 79.1637 24.1778C79.8984 24.4462 80.6981 24.491 81.459 24.3063C81.7101 24.2465 81.9561 24.1677 82.1949 24.0705C82.4117 23.983 82.6196 23.8757 82.816 23.75C82.9179 23.6836 83.0341 23.5905 83.1575 23.493C83.5878 23.1514 84.1043 22.7405 84.4801 23.0596C84.5099 23.0844 84.5372 23.1118 84.5619 23.1415C84.6205 23.2134 84.6598 23.2987 84.6761 23.3895C84.6923 23.4803 84.6851 23.5737 84.6551 23.6611C84.5942 23.8455 84.494 24.0149 84.361 24.158C84.2796 24.25 84.1908 24.3354 84.0956 24.4136C82.9122 25.368 81.6426 25.7675 80.4433 25.7506C79.3158 25.7145 78.2266 25.3387 77.3231 24.6739C76.4195 24.0091 75.7451 23.0874 75.3909 22.0332C75.1235 21.1757 75.1007 20.2624 75.3249 19.3931C75.6519 18.0659 77.6374 15.6644 79.092 13.9053C79.5223 13.3772 79.9168 12.9085 80.1966 12.5457L80.3185 12.3847C80.7489 11.82 81.4131 10.9277 82.017 11.3527L82.0314 11.3569ZM84.2075 8.66624e-05C87.5349 0.00325584 90.8017 0.875808 93.6741 2.52857C96.5466 4.18133 98.9216 6.55504 100.557 9.4071C102.192 12.2592 103.028 15.4873 102.98 18.7616C102.932 22.036 102.002 25.2391 100.284 28.0436C98.5659 30.8481 96.1224 33.1535 93.2027 34.7241C90.2831 36.2947 86.9921 37.0742 83.666 36.983C80.34 36.8918 77.0982 35.9332 74.2719 34.205C71.4456 32.4769 69.1363 30.0412 67.5798 27.1469C67.5752 27.1383 67.5744 27.1282 67.5773 27.119C67.5803 27.1097 67.5868 27.102 67.5956 27.0975C67.6012 27.0962 67.6071 27.0962 67.6128 27.0975H69.1047C69.1115 27.0976 69.1181 27.0995 69.1239 27.103C69.1297 27.1065 69.1344 27.1114 69.1377 27.1172C69.5159 27.7551 69.9357 28.3682 70.3944 28.9526C70.8544 29.5401 71.3522 30.098 71.8848 30.6228C74.3886 33.0835 77.5947 34.735 81.0762 35.3573C84.5576 35.9796 88.149 35.5432 91.3721 34.1062C94.5951 32.6692 97.2969 30.2999 99.1174 27.3138C100.938 24.3277 101.791 20.8666 101.562 17.3915C101.334 13.9164 100.035 10.5923 97.8388 7.86188C95.6426 5.1315 92.6532 3.12448 89.2689 2.10816C85.8846 1.09184 82.266 1.11447 78.895 2.17302C75.5241 3.23158 72.5609 5.27582 70.4001 8.03344C69.9429 8.61836 69.5241 9.2314 69.1463 9.86882C69.1428 9.87432 69.1379 9.87887 69.1321 9.88207C69.1264 9.88527 69.1199 9.88703 69.1133 9.88718H67.6214C67.615 9.88716 67.6087 9.88553 67.6031 9.88243C67.5976 9.87933 67.5929 9.87487 67.5896 9.86948C67.5863 9.86409 67.5844 9.85795 67.5842 9.85166C67.584 9.84536 67.5854 9.83912 67.5884 9.83353C68.0272 9.02186 68.5263 8.24323 69.0817 7.504C70.828 5.17302 73.1071 3.27917 75.7348 1.97558C78.3624 0.672 81.2649 -0.00473896 84.2075 8.66624e-05ZM66.2356 15.9454L70.2839 12.6078H69.2797C68.155 12.6078 66.6746 12.6078 65.9803 12.6078C65.8335 12.6147 65.6879 12.578 65.5626 12.5024C65.4373 12.4269 65.3379 12.3161 65.2773 12.1842C65.2374 12.0952 65.2164 11.9991 65.2157 11.9019C65.2136 11.8048 65.2332 11.7084 65.273 11.6195C65.3735 11.395 65.6059 11.2228 65.9803 11.2228H72.1861C72.277 11.2212 72.3673 11.2379 72.4514 11.2719C72.5356 11.3059 72.6117 11.3564 72.6753 11.4204C72.8046 11.5533 72.8762 11.7306 72.8747 11.9146C72.8747 12.2492 72.6954 12.396 72.4615 12.5894L69.3055 15.19C70.3022 15.2828 71.2563 15.633 72.0713 16.2051C72.8135 16.7294 73.4091 17.4297 73.8028 18.241C74.1991 19.0578 74.3674 19.9637 74.2906 20.8656C74.195 21.8819 73.8184 22.8531 73.2018 23.6738C72.6094 24.4518 71.8051 25.0485 70.8821 25.3948C69.9641 25.7449 68.9653 25.8368 67.9972 25.6602C67.2769 25.5107 66.5923 25.227 65.9803 24.8244C65.3634 24.4277 64.8326 23.935 64.5242 23.4267C64.3105 23.0681 64.3004 22.7321 64.408 22.5005C64.4488 22.41 64.5132 22.3316 64.5945 22.2732C64.6739 22.2176 64.7682 22.1861 64.8656 22.1829C65.0794 22.1758 65.3304 22.2986 65.5585 22.6064C65.9171 23.1154 66.3768 23.5477 66.9099 23.8771C67.4742 24.21 68.1169 24.3925 68.7748 24.4065C69.6571 24.4437 70.5271 24.1915 71.2479 23.6893C71.9756 23.1805 72.5138 22.451 72.78 21.6125C73.0495 20.7734 73.0176 19.8686 72.6896 19.05C72.3554 18.2065 71.7451 17.4966 70.9553 17.0325C70.2949 16.6392 69.5278 16.4549 68.7575 16.5045C68.1894 16.5598 67.6375 16.7228 67.1322 16.9845C66.6904 17.1977 66.3776 17.233 66.1739 17.1638C66.0727 17.1312 65.9873 17.0628 65.9344 16.9718C65.8851 16.8797 65.8618 16.7764 65.8669 16.6725C65.8761 16.5332 65.9134 16.3972 65.9767 16.2723C66.04 16.1474 66.1281 16.0363 66.2356 15.9454Z" fill="#FFA737"/>
<path d="M62.5689 15.2098C62.6029 15.2442 62.6297 15.2848 62.6476 15.3294C62.6656 15.374 62.6744 15.4216 62.6737 15.4695V16.0202C62.6744 16.0681 62.6656 16.1157 62.6476 16.1603C62.6297 16.2049 62.6029 16.2456 62.5689 16.2799C62.5345 16.3136 62.4934 16.3401 62.4483 16.3578C62.4032 16.3755 62.355 16.3841 62.3064 16.383H61.9722C61.592 16.3796 61.2158 16.4588 60.8704 16.615C60.525 16.7712 60.2188 17.0005 59.9739 17.2866C59.419 17.944 59.1146 18.7714 59.1131 19.626V24.7086C59.1122 24.8225 59.0658 24.9315 58.984 25.0122C58.9014 25.0948 58.7891 25.1425 58.6713 25.1449H58.2653C58.2057 25.148 58.146 25.139 58.0901 25.1182C58.0342 25.0974 57.9834 25.0654 57.9407 25.0243C57.8981 24.9831 57.8646 24.9337 57.8425 24.8791C57.8203 24.8245 57.8099 24.7659 57.812 24.7072V15.8945C57.8115 15.7808 57.8551 15.6712 57.9339 15.5881C57.9718 15.5477 58.0177 15.5153 58.0687 15.4929C58.1198 15.4706 58.175 15.4588 58.2309 15.4583C58.3212 15.4563 58.4096 15.4841 58.4819 15.5373C58.5548 15.594 58.6111 15.6685 58.6455 15.7533L58.9324 16.551C59.2849 16.1591 59.699 15.8254 60.1589 15.5627C60.7131 15.2589 61.3378 15.1017 61.9722 15.1067H62.3036C62.3521 15.1056 62.4004 15.1142 62.4455 15.1319C62.4906 15.1496 62.5316 15.1761 62.5661 15.2098H62.5689ZM47.6411 17.1214C46.9713 17.6207 46.4691 18.3063 46.1994 19.0895H53.6791C53.4129 18.3064 52.913 17.6205 52.2446 17.1214C51.5754 16.6415 50.7687 16.3829 49.9407 16.3829C49.1127 16.3829 48.306 16.6415 47.6368 17.1214H47.6411ZM53.8025 22.252L54.1884 22.5541C54.2337 22.5892 54.2702 22.6341 54.295 22.6852C54.3199 22.7364 54.3325 22.7925 54.3318 22.8492C54.3233 22.9581 54.2868 23.0631 54.2257 23.1542C53.74 23.8377 53.0952 24.3968 52.345 24.7848C51.364 25.2945 50.2424 25.4797 49.1462 25.3132C48.05 25.1466 47.0373 24.6371 46.2582 23.8601C45.322 22.9316 44.7817 21.686 44.7479 20.3783C44.7141 19.0706 45.1895 17.7997 46.0766 16.8256C46.9637 15.8515 48.1956 15.2479 49.5201 15.1383C50.8445 15.0287 52.1615 15.4215 53.2014 16.2362C54.1292 16.9601 54.7768 17.9751 55.0362 19.1121C55.062 19.2363 55.0806 19.3563 55.0979 19.4778C55.1151 19.5992 55.1265 19.7135 55.138 19.8392V19.8872C55.1429 19.9603 55.1292 20.0334 55.0981 20.1C55.0671 20.1665 55.0197 20.2244 54.9601 20.2684C54.8858 20.3202 54.7985 20.351 54.7077 20.3573C51.8759 20.4463 48.8777 20.3573 46.0273 20.3573C46.065 21.351 46.4898 22.2924 47.2136 22.9862C47.7988 23.5575 48.554 23.9303 49.3693 24.0501C50.1846 24.17 51.0175 24.0307 51.7468 23.6526C52.3175 23.352 52.8088 22.9241 53.1813 22.4031C53.2495 22.3038 53.3465 22.2271 53.4596 22.1828C53.5179 22.1636 53.5803 22.1599 53.6405 22.172C53.7007 22.1842 53.7566 22.2118 53.8025 22.252ZM39.7741 24.7072V16.7303H38.7427C38.6841 16.7309 38.626 16.7199 38.5718 16.6982C38.5176 16.6764 38.4683 16.6441 38.4269 16.6034C38.3855 16.5626 38.3528 16.5142 38.3306 16.4608C38.3085 16.4074 38.2974 16.3503 38.298 16.2926C38.2972 16.2031 38.3253 16.1156 38.3783 16.0428C38.4345 15.9698 38.5113 15.9148 38.5992 15.8846L39.7741 15.4907V11.3865C39.7736 11.2728 39.8172 11.1632 39.896 11.0801C39.9339 11.0397 39.9798 11.0074 40.0309 10.985C40.0819 10.9627 40.1371 10.9509 40.193 10.9503H40.6506C40.7065 10.9508 40.7617 10.9626 40.8128 10.9849C40.8638 11.0073 40.9097 11.0397 40.9476 11.0801C41.0264 11.1632 41.07 11.2728 41.0695 11.3865V15.4583H43.425C43.5429 15.4574 43.6564 15.5026 43.7406 15.5839C43.782 15.6247 43.8147 15.6731 43.8368 15.7265C43.859 15.7798 43.8702 15.8369 43.8697 15.8945V16.2955C43.8673 16.4117 43.8184 16.5224 43.7334 16.6033C43.6935 16.6441 43.6456 16.6767 43.5926 16.699C43.5396 16.7213 43.4826 16.7329 43.425 16.7331H41.0695V24.7072C41.0701 24.8213 41.0265 24.9314 40.9476 25.015C40.9097 25.0555 40.8638 25.0879 40.8128 25.1102C40.7617 25.1325 40.7065 25.1443 40.6506 25.1449H40.193C40.1371 25.1443 40.0819 25.1324 40.0309 25.1101C39.9798 25.0877 39.9339 25.0554 39.896 25.015C39.8171 24.9314 39.7735 24.8213 39.7741 24.7072ZM36.2537 16.3068C36.2731 16.3968 36.2556 16.4906 36.205 16.568C36.1031 16.7247 35.9812 16.8969 35.8707 17.048C35.8423 17.0877 35.8048 17.1204 35.7611 17.1432C35.7175 17.166 35.6691 17.1784 35.6197 17.1793C35.5026 17.1789 35.3882 17.1456 35.2897 17.0833C35.0441 16.9248 34.7808 16.7945 34.505 16.695C34.1759 16.5764 33.8284 16.5148 33.4779 16.5129C32.6172 16.5129 32.1653 16.7571 31.9329 17.0565C31.7539 17.3121 31.6661 17.619 31.6833 17.929C31.6833 18.9173 32.6875 19.2928 33.4047 19.5681C33.5252 19.6133 33.6386 19.6556 33.7404 19.6994C34.4304 19.9634 35.152 20.2641 35.7029 20.7131C35.9987 20.9358 36.2375 21.2235 36.4002 21.5532C36.5628 21.8829 36.6448 22.2455 36.6396 22.612C36.6396 23.5057 36.3298 24.2131 35.799 24.7001C35.2453 25.2084 34.4548 25.4795 33.5224 25.4795C32.9297 25.4663 32.3463 25.3317 31.8095 25.0842C31.1743 24.7997 30.5858 24.4232 30.0637 23.9674C30.0379 23.9448 30.0106 23.9152 29.9848 23.8912C29.9486 23.8572 29.9197 23.8165 29.8997 23.7714C29.8798 23.7263 29.8692 23.6777 29.8686 23.6286C29.8703 23.5285 29.912 23.4331 29.9848 23.3631L30.3406 23.013C30.4165 22.9365 30.519 22.8911 30.6275 22.8859C30.6785 22.883 30.7296 22.8905 30.7775 22.908C30.8254 22.9255 30.8691 22.9526 30.9058 22.9876L30.956 23.037C31.3458 23.3896 31.7867 23.6832 32.2643 23.9081C32.6558 24.1029 33.0854 24.2122 33.5238 24.2286C34.012 24.2473 34.4904 24.0902 34.8694 23.7867C35.03 23.6362 35.1556 23.4533 35.2375 23.2505C35.3195 23.0478 35.3559 22.8299 35.3442 22.612C35.3442 21.635 34.1837 21.2002 33.4793 20.9489C33.3732 20.9108 33.2771 20.8755 33.1924 20.843L33.125 20.8162C31.4939 20.1752 30.3692 19.7333 30.3692 17.929C30.3692 17.0819 30.6562 16.4098 31.1884 15.9524C31.7206 15.495 32.4938 15.2465 33.4607 15.2465C33.9706 15.2477 34.4761 15.34 34.9526 15.519C35.3217 15.6582 35.6732 15.8392 35.9998 16.0583L36.0773 16.1077C36.16 16.1492 36.2232 16.2205 36.2537 16.3068ZM24.2509 23.013C24.9966 22.2795 25.4173 21.2856 25.4213 20.248C25.4254 19.2105 25.0124 18.2134 24.2725 17.4744C23.9115 17.1191 23.4817 16.839 23.0085 16.6505C22.5354 16.462 22.0285 16.3692 21.5181 16.3774C21.0051 16.3722 20.4962 16.468 20.0212 16.659C19.5463 16.8501 19.1149 17.1326 18.7523 17.4899C18.0145 18.2236 17.6019 19.2149 17.6047 20.2472C17.6047 20.7504 17.7061 21.2486 17.9031 21.7129C18.1001 22.1773 18.3887 22.5985 18.7523 22.9523C19.4838 23.6795 20.4784 24.0918 21.5181 24.0987C22.0243 24.107 22.527 24.0152 22.9965 23.8287C23.4659 23.6422 23.8925 23.3648 24.2509 23.013ZM23.6857 15.5825C24.3652 15.8974 24.9723 16.3451 25.4703 16.8983L25.8562 15.7576C25.8869 15.6707 25.9433 15.595 26.0183 15.5401C26.0922 15.4862 26.1817 15.457 26.2736 15.4568C26.3916 15.456 26.505 15.5012 26.5892 15.5825C26.6304 15.6233 26.6629 15.6718 26.6848 15.7252C26.7067 15.7785 26.7176 15.8356 26.7169 15.8931V24.7072C26.7189 24.7651 26.7088 24.8227 26.6873 24.8766C26.6657 24.9305 26.6331 24.9795 26.5916 25.0205C26.5501 25.0615 26.5004 25.0937 26.4457 25.1151C26.391 25.1365 26.3325 25.1466 26.2736 25.1449H25.8662C25.8076 25.1456 25.7494 25.1348 25.6951 25.1131C25.6408 25.0914 25.5915 25.0592 25.5501 25.0184C25.5086 24.9776 25.4759 24.929 25.4538 24.8756C25.4317 24.8221 25.4207 24.7649 25.4215 24.7072V23.6102C24.959 24.1481 24.3821 24.5794 23.7316 24.8738C23.0252 25.2001 22.2534 25.366 21.4731 25.3593C20.6929 25.3526 19.9241 25.1734 19.2236 24.835C18.5231 24.4967 17.9088 24.0077 17.4261 23.4044C16.9434 22.801 16.6046 22.0986 16.4347 21.3491C16.2649 20.5995 16.2683 19.822 16.4447 19.0739C16.6212 18.3259 16.9661 17.6264 17.4541 17.0271C17.9421 16.4279 18.5607 15.9442 19.2641 15.6118C19.9675 15.2794 20.7378 15.1068 21.5181 15.1067C22.2676 15.1065 23.0078 15.2694 23.6857 15.5839V15.5825ZM50.0813 20.3263H53.2373C52.2044 20.3432 51.1443 20.3376 50.0856 20.3305L50.0813 20.3263ZM12.4963 16.1811C13.1275 16.8362 13.5177 17.7779 13.5306 18.9709V24.7072C13.5314 24.7649 13.5204 24.8221 13.4983 24.8756C13.4763 24.929 13.4435 24.9776 13.4021 25.0184C13.3606 25.0592 13.3113 25.0914 13.257 25.1131C13.2027 25.1348 13.1445 25.1456 13.0859 25.1449H12.6842C12.6256 25.1456 12.5674 25.1348 12.5131 25.1131C12.4588 25.0914 12.4095 25.0592 12.3681 25.0184C12.3266 24.9776 12.2939 24.929 12.2718 24.8756C12.2497 24.8221 12.2388 24.7649 12.2395 24.7072V18.9751C12.2452 18.5908 12.1821 18.2085 12.053 17.8457C11.9415 17.5325 11.7573 17.2492 11.5151 17.0183C11.3002 16.8092 11.0424 16.6475 10.7591 16.544C10.4554 16.4323 10.1336 16.3758 9.80942 16.3774C9.15096 16.3774 8.55419 16.736 8.11953 17.3063C7.64416 17.9585 7.39286 18.743 7.40226 19.5455V24.7072C7.40302 24.8228 7.3571 24.9341 7.27458 25.0164C7.1904 25.0977 7.07693 25.1429 6.95898 25.142H6.55158C6.49296 25.1428 6.43479 25.132 6.38049 25.1103C6.32618 25.0885 6.27685 25.0563 6.2354 25.0155C6.19395 24.9747 6.16122 24.9262 6.13915 24.8728C6.11707 24.8193 6.1061 24.7621 6.10687 24.7044V18.9751C6.11258 18.5908 6.04946 18.2085 5.92038 17.8457C5.80879 17.5325 5.62461 17.2492 5.38243 17.0183C5.16916 16.8082 4.91293 16.645 4.63073 16.5397C4.32541 16.429 4.00213 16.3739 3.67676 16.3774C3.05417 16.3774 2.49756 16.6936 2.07581 17.1962C1.60388 17.7847 1.32339 18.4997 1.27103 19.2476V24.7072C1.27195 24.8225 1.22778 24.9337 1.14766 25.0178C1.10976 25.0582 1.06387 25.0906 1.01281 25.1129C0.961748 25.1352 0.906587 25.1471 0.850712 25.1477H0.42035C0.364474 25.1471 0.309314 25.1352 0.258251 25.1129C0.207189 25.0906 0.1613 25.0582 0.1234 25.0178C0.0432811 24.9337 -0.000892924 24.8225 2.94168e-05 24.7072V15.8945C-0.000471315 15.7808 0.043143 15.6712 0.121965 15.5881C0.159866 15.5477 0.205754 15.5154 0.256817 15.493C0.30788 15.4707 0.36304 15.4589 0.418915 15.4583C0.509219 15.4563 0.597593 15.4841 0.66996 15.5373C0.742772 15.594 0.79917 15.6685 0.833497 15.7533L1.06876 16.4239C1.36526 16.0743 1.71574 15.7728 2.10737 15.5303C2.5801 15.2477 3.12372 15.101 3.67676 15.1067C4.34747 15.0996 5.00849 15.2646 5.59474 15.5853C6.13755 15.8884 6.58444 16.3336 6.88582 16.8715C7.19743 16.3557 7.62914 15.9202 8.14535 15.6008C8.64165 15.2851 9.2185 15.1138 9.80942 15.1067C10.8724 15.1067 11.8249 15.4794 12.502 16.1825L12.4963 16.1811Z" fill="white"/>
</svg>
