<svg width="39" height="37" viewBox="0 0 39 37" fill="none" xmlns="http://www.w3.org/2000/svg">
<path d="M18.0313 11.3569C18.3039 11.5503 18.367 11.7677 18.3182 11.9852C18.2495 12.2126 18.1282 12.4214 17.9639 12.5951L15.7604 15.1985C16.7359 15.2084 17.5134 15.3058 18.1733 15.5261C18.8373 15.746 19.4356 16.1243 19.9148 16.6273C20.6522 17.3784 21.2977 18.4359 21.9648 19.5286C22.3952 20.2345 22.837 20.9588 23.319 21.6252C23.7026 22.1697 24.1419 22.674 24.6302 23.1302C25.0893 23.5626 25.627 23.9061 26.2153 24.1425C26.445 24.2476 26.6855 24.328 26.9326 24.3825C27.1789 24.4369 27.4305 24.4644 27.6829 24.4644C29.0055 24.4644 29.9781 23.9872 30.6323 23.222C31.384 22.348 31.7297 21.0957 31.7297 19.7503C31.7446 18.536 31.3246 17.3554 30.5434 16.4155C29.8103 15.5684 28.8004 15.0376 27.6829 15.0376C27.1067 15.0387 26.5396 15.1793 26.0317 15.447C25.4942 15.733 25.0271 16.1315 24.6632 16.6146C24.5281 16.811 24.362 16.985 24.1711 17.1299C24.0715 17.2039 23.9502 17.2439 23.8254 17.2439C23.7006 17.2439 23.5793 17.2039 23.4797 17.1299C23.4089 17.0868 23.3496 17.0276 23.3067 16.9574C23.2638 16.8872 23.2385 16.8079 23.2329 16.7261C23.2299 16.5626 23.2673 16.4007 23.342 16.2546C23.4746 15.995 23.6468 15.7569 23.8527 15.5486C24.0278 15.3655 24.2131 15.192 24.4078 15.0291C24.7308 14.7529 25.0862 14.5159 25.4665 14.3232C25.8904 14.1176 26.3414 13.9712 26.8064 13.8883C29.2451 13.4168 31.0813 14.5759 32.13 16.3308C32.5492 17.048 32.8403 17.8307 32.9907 18.6448C33.1489 19.4668 33.1664 20.309 33.0423 21.1367C32.7138 23.2728 31.3768 25.1647 28.8319 25.6546C24.5427 26.4706 22.3005 22.7165 20.7813 20.1724L20.6378 19.9338C20.2201 19.1978 19.7311 18.5032 19.1775 17.8598C18.5764 17.1991 17.8606 16.6654 17.0257 16.5595C16.1169 16.4299 15.1908 16.6215 14.4119 17.1003C13.6204 17.5959 13.0251 18.3432 12.7249 19.218C12.5198 19.814 12.4648 20.45 12.5648 21.0715C12.6647 21.693 12.9166 22.2813 13.2987 22.7857C13.7694 23.4186 14.4175 23.9024 15.1636 24.1778C15.8983 24.4462 16.698 24.491 17.4589 24.3063C17.71 24.2465 17.9561 24.1677 18.1948 24.0705C18.4116 23.983 18.6196 23.8757 18.816 23.75C18.9178 23.6836 19.034 23.5905 19.1574 23.493C19.5878 23.1514 20.1042 22.7405 20.4801 23.0596C20.5098 23.0844 20.5372 23.1118 20.5618 23.1415C20.6204 23.2134 20.6597 23.2987 20.676 23.3895C20.6923 23.4803 20.6851 23.5737 20.6551 23.6611C20.5942 23.8455 20.4939 24.0149 20.361 24.158C20.2795 24.25 20.1908 24.3354 20.0956 24.4136C18.9121 25.368 17.6425 25.7675 16.4433 25.7506C15.3157 25.7145 14.2266 25.3387 13.323 24.6739C12.4195 24.0091 11.745 23.0874 11.3908 22.0332C11.1234 21.1757 11.1006 20.2624 11.3248 19.3931C11.6519 18.0659 13.6373 15.6644 15.0919 13.9053C15.5223 13.3772 15.9168 12.9085 16.1965 12.5457L16.3184 12.3847C16.7488 11.82 17.413 10.9277 18.0169 11.3527L18.0313 11.3569ZM20.2075 8.66624e-05C23.5348 0.00325584 26.8016 0.875808 29.6741 2.52857C32.5465 4.18133 34.9216 6.55504 36.5566 9.4071C38.1915 12.2592 39.0278 15.4873 38.9798 18.7616C38.9319 22.036 38.0015 25.2391 36.2837 28.0436C34.5659 30.8481 32.1223 33.1535 29.2026 34.7241C26.283 36.2947 22.992 37.0742 19.666 36.983C16.3399 36.8918 13.0981 35.9332 10.2718 34.205C7.44558 32.4769 5.13621 30.0412 3.57973 27.1469C3.57518 27.1383 3.57429 27.1282 3.57725 27.119C3.58021 27.1097 3.58677 27.102 3.59551 27.0975C3.60117 27.0962 3.60706 27.0962 3.61272 27.0975H5.10464C5.11142 27.0976 5.11803 27.0995 5.12382 27.103C5.12961 27.1065 5.13438 27.1114 5.13764 27.1172C5.51583 27.7551 5.93559 28.3682 6.39429 28.9526C6.85433 29.5401 7.35218 30.098 7.88478 30.6228C10.3886 33.0835 13.5947 34.735 17.0761 35.3573C20.5575 35.9796 24.1489 35.5432 27.372 34.1062C30.5951 32.6692 33.2968 30.2999 35.1173 27.3138C36.9378 24.3277 37.7906 20.8666 37.5622 17.3915C37.3338 13.9164 36.035 10.5923 33.8388 7.86188C31.6425 5.1315 28.6532 3.12448 25.2689 2.10816C21.8845 1.09184 18.2659 1.11447 14.895 2.17302C11.524 3.23158 8.56082 5.27582 6.40003 8.03344C5.94286 8.61836 5.52408 9.2314 5.14625 9.86882C5.1427 9.87432 5.13784 9.87887 5.13208 9.88207C5.12633 9.88527 5.11986 9.88703 5.11325 9.88718H3.62133C3.61493 9.88716 3.60864 9.88553 3.60307 9.88243C3.5975 9.87933 3.59283 9.87487 3.58951 9.86948C3.5862 9.86409 3.58435 9.85795 3.58414 9.85166C3.58394 9.84536 3.58538 9.83912 3.58833 9.83353C4.0271 9.02186 4.52625 8.24323 5.08169 7.504C6.82795 5.17302 9.10705 3.27917 11.7347 1.97558C14.3624 0.672 17.2649 -0.00473896 20.2075 8.66624e-05ZM2.23556 15.9454L6.28383 12.6078H5.27966C4.15498 12.6078 2.67453 12.6078 1.98021 12.6078C1.83341 12.6147 1.68788 12.578 1.56254 12.5024C1.43719 12.4269 1.33781 12.3161 1.27729 12.1842C1.23737 12.0952 1.21637 11.9991 1.2156 11.9019C1.21359 11.8048 1.23318 11.7084 1.27299 11.6195C1.3734 11.395 1.6058 11.2228 1.98021 11.2228H8.18604C8.27696 11.2212 8.36725 11.2379 8.45138 11.2719C8.5355 11.3059 8.61167 11.3564 8.67521 11.4204C8.80457 11.5533 8.87612 11.7306 8.87461 11.9146C8.87461 12.2492 8.6953 12.396 8.46147 12.5894L5.30548 15.19C6.30216 15.2828 7.25627 15.633 8.07127 16.2051C8.81343 16.7294 9.40901 17.4297 9.80276 18.241C10.199 19.0578 10.3673 19.9637 10.2905 20.8656C10.1949 21.8819 9.81834 22.8531 9.20169 23.6738C8.60939 24.4518 7.80505 25.0485 6.88204 25.3948C5.96404 25.7449 4.9652 25.8368 3.99718 25.6602C3.27688 25.5107 2.59227 25.227 1.98021 24.8244C1.36336 24.4277 0.832581 23.935 0.524155 23.4267C0.310408 23.0681 0.300367 22.7321 0.407957 22.5005C0.448786 22.41 0.5131 22.3316 0.594446 22.2732C0.673845 22.2176 0.768145 22.1861 0.865576 22.1829C1.07932 22.1758 1.33037 22.2986 1.55846 22.6064C1.91708 23.1154 2.37678 23.5477 2.9098 23.8771C3.47412 24.21 4.11688 24.3925 4.7747 24.4065C5.65706 24.4437 6.52699 24.1915 7.24785 23.6893C7.97557 23.1805 8.51375 22.451 8.77993 21.6125C9.04946 20.7734 9.01755 19.8686 8.68956 19.05C8.35534 18.2065 7.74509 17.4966 6.9552 17.0325C6.29482 16.6392 5.5277 16.4549 4.75748 16.5045C4.18932 16.5598 3.63741 16.7228 3.13215 16.9845C2.69031 17.1977 2.37758 17.233 2.17388 17.1638C2.07262 17.1312 1.98726 17.0628 1.93431 16.9718C1.88504 16.8797 1.86176 16.7764 1.86688 16.6725C1.87603 16.5332 1.91336 16.3972 1.97667 16.2723C2.03998 16.1474 2.128 16.0363 2.23556 15.9454Z" fill="#FFA737"/>
</svg>
